# xmcd CD database file
#
# Track frame offsets:
#	150
#	9562
#	26615
#	42540
#	51726
#	67452
#	74390
#	85999
#	105935
#	120354
#	138720
#	157053
#	161668
#	168563
#	183005
#
# Disc length: 2697 seconds
#
# Revision: 0
# Processed by: cddbd v1.5PL3 Copyright (c) Steve Scherf et al.
# Submitted via: CDex 1.50
#
DISCID=d80a870f
DTITLE=Various Artist - Country Legends Vol 4
DYEAR=1900
DGENRE=Country
TTITLE0=I Got Stripes   Johnny Cash
TTITLE1=Loving Her Was Easier  Kris Kristofferson
TTITLE2=Today I Started Loving You Again   Merle Haggard
TTITLE3=Let Your Love Flow  Bellamy Brothers
TTITLE4=North Of The Border   Johnny Rodriguez
TTITLE5=Always Something There To Remind Me     Don Williams
TTITLE6=Letter To Heaven   Dolly Parton
TTITLE7=I Can't Forget It  Patsy Cline
TTITLE8=Hoe To Run   Lomax Tallahassee
TTITLE9=Please To Meet You  Sarah Sparkle
TTITLE10=Brochure    Pete Rowe
TTITLE11=Wild Ponies  Doug  Hamilton III
TTITLE12=Call You   Lonesome Johnny 
TTITLE13=Sidewalk   Curtis Tweed
TTITLE14=Tired Eyes  Polly
EXTD=
EXTT0=
EXTT1=
EXTT2=
EXTT3=
EXTT4=
EXTT5=
EXTT6=
EXTT7=
EXTT8=
EXTT9=
EXTT10=
EXTT11=
EXTT12=
EXTT13=
EXTT14=
PLAYORDER=
